PathFileType	4	(X/Y/Z)	c:/Users/goper/Files/vsCode/490R/osim_files/C12/C12_Slow_06.trc
DataRate	CameraRate	NumFrames	NumMarkers	Units                	OrigDataRate	OrigDataStartFrame	OrigNumFrames
120.00	120.00	4	36	mm	120.0	817	1306
                Frame#	Time	LPSIS			LASIS			LTH1			LTH2			LTH3			LTH4			LLFE			LMFE			LSH1			LSH2			LSH3			LSH4			LLMAL			LMMAL			LCAL			LMTP5			LTOE			LMTP1			RPSIS			RASIS			RTH1			RTH2			RTH3			RTH4			RLFE			RMFE			RSH1			RSH2			RSH3			RSH4			RLMAL			RMMAL			RCAL			RMTP1			RTOE			RMTP5		
		X1	Y1	Z1	X2	Y2	Z2	X3	Y3	Z3	X4	Y4	Z4	X5	Y5	Z5	X6	Y6	Z6	X7	Y7	Z7	X8	Y8	Z8	X9	Y9	Z9	X10	Y10	Z10	X11	Y11	Z11	X12	Y12	Z12	X13	Y13	Z13	X14	Y14	Z14	X15	Y15	Z15	X16	Y16	Z16	X17	Y17	Z17	X18	Y18	Z18	X19	Y19	Z19	X20	Y20	Z20	X21	Y21	Z21	X22	Y22	Z22	X23	Y23	Z23	X24	Y24	Z24	X25	Y25	Z25	X26	Y26	Z26	X27	Y27	Z27	X28	Y28	Z28	X29	Y29	Z29	X30	Y30	Z30	X31	Y31	Z31	X32	Y32	Z32	X33	Y33	Z33	X34	Y34	Z34	X35	Y35	Z35	X36	Y36	Z36

817	6.80000	-1067.33826	1051.85986	389.71118	-1238.61353	999.03632	470.46582	-1064.22095	748.59570	496.54337	-1055.63562	706.00330	494.29089	-1122.25232	733.98010	505.85196	-1107.44031	691.68903	500.70636	-1034.29016	524.54816	455.50168	-1039.32495	520.04150	327.87082	-947.15015	451.90753	469.08578	-936.32391	405.74094	474.78180	-1003.41028	429.67380	464.33102	-981.83978	387.14740	468.45514	-855.98328	123.28719	423.83618	-865.04462	124.22997	346.45493	-785.60248	103.15990	385.97720	-971.55139	39.82687	449.09818	-1027.98706	63.89168	378.72330	-990.76855	38.39443	336.29846	-1061.44751	1039.61987	275.42126	-1247.50671	1007.04022	212.71744	-1228.43396	718.98633	149.15279	-1247.52026	677.77838	156.01668	-1287.34814	739.05011	155.68210	-1298.15149	693.31329	161.36183	-1327.96057	522.01849	197.52599	-1318.91638	518.82263	335.33698	-1318.26257	410.61798	178.94899	-1341.82776	373.75745	171.14505	-1375.77161	436.85397	182.60262	-1390.05664	396.79266	174.53798	-1514.72925	128.09511	213.29639	-1523.29614	153.29588	293.28305	-1476.74084	61.14685	259.49518	-1666.56213	163.79648	292.46201	-1687.68604	202.97433	256.54288	-1676.27637	152.38278	187.79266
818	6.80833	-1078.17847	1050.39575	388.57486	-1249.07483	996.97870	469.67307	-1073.96301	746.92346	495.98120	-1065.44067	704.20331	493.68784	-1132.13403	732.07117	505.30038	-1117.25256	689.69189	500.12665	-1043.87817	522.56952	455.27087	-1049.00171	517.58252	327.71579	-955.68982	451.22546	469.15472	-944.14240	404.98990	474.74429	-1011.59845	427.82285	464.01828	-989.12378	385.82245	468.33282	-857.50116	124.77733	424.17633	-866.65314	125.70491	346.51883	-786.66882	105.71904	386.21741	-971.68188	39.72308	449.18912	-1028.08179	63.91262	378.54614	-990.93872	38.24981	336.38635	-1072.05090	1037.76147	274.24887	-1258.24646	1004.90790	211.71523	-1241.91809	718.31989	148.83089	-1261.00940	677.25330	155.83078	-1300.48254	738.66736	155.72661	-1311.45862	693.06635	161.98233	-1341.67102	521.89917	198.03925	-1330.79138	518.54102	335.70642	-1330.99219	410.26642	179.05222	-1354.09290	373.28625	171.22267	-1388.91553	435.86475	183.30202	-1402.61353	395.74884	175.10986	-1524.78076	125.55759	214.36391	-1532.58044	150.48383	294.78693	-1485.76782	58.73160	259.90378	-1675.94080	160.16475	294.86670	-1697.30164	199.51562	259.61029	-1686.08228	149.74379	190.28558
819	6.81667	-1089.17822	1048.86707	387.62894	-1259.81226	994.96228	468.90991	-1084.44153	744.86450	495.33893	-1075.88586	702.20898	493.29358	-1142.52942	730.10156	504.84787	-1127.71521	687.60779	499.77649	-1053.97632	520.53760	455.07385	-1058.97266	514.99536	327.65167	-964.80029	450.60489	469.30649	-951.98651	404.57632	475.11591	-1020.12006	426.08801	463.87201	-996.90735	384.49780	468.14407	-858.96106	126.99516	425.33633	-868.28259	127.41477	346.70184	-788.05707	108.60013	386.63333	-971.95312	39.57980	449.32208	-1027.71765	63.49328	378.39713	-991.15680	38.18698	336.46964	-1082.93787	1036.14844	273.27209	-1269.17749	1002.97913	210.54709	-1255.90881	718.02600	148.30882	-1275.24866	677.29248	155.38252	-1314.13318	738.87909	155.78976	-1325.63416	693.62622	162.44157	-1356.00928	521.62311	198.58423	-1343.43115	518.39203	336.18289	-1344.25964	409.98233	179.17290	-1368.09143	372.22269	172.59573	-1402.45386	434.93216	184.13762	-1415.37268	394.75311	175.59059	-1532.31506	122.97187	215.15588	-1540.10864	146.49966	296.07358	-1492.26038	55.75631	260.01895	-1683.57654	153.99791	297.46689	-1705.76794	193.51295	263.04459	-1694.17834	144.90224	192.98401
820	6.82500	-1100.35242	1047.31287	386.71686	-1270.85303	993.00500	467.96204	-1095.20679	742.73608	494.96497	-1086.71228	700.07318	492.99609	-1153.26794	728.01660	504.34225	-1138.61414	685.50464	499.49951	-1064.35632	518.54810	454.83414	-1069.46570	512.39093	327.65723	-974.35535	450.04077	469.51166	-960.28345	404.26956	475.50082	-1029.00342	424.34616	463.55746	-1004.96912	383.29813	467.96988	-861.07996	129.01660	425.79941	-870.22443	129.38605	346.99789	-790.19049	111.68004	386.98566	-972.22375	39.39860	449.48157	-1027.64319	63.72997	377.94937	-991.39093	38.09841	336.57446	-1094.36853	1034.67200	272.45639	-1280.29175	1001.19556	209.32841	-1270.55103	717.76105	147.77299	-1290.21216	677.24707	154.61510	-1328.49023	739.59302	155.88895	-1340.27173	694.76294	162.43788	-1371.14062	522.04523	199.45944	-1356.70837	518.48883	336.67990	-1357.52808	409.75732	179.25900	-1380.68530	371.93686	172.56252	-1416.16455	433.92621	185.08640	-1428.64661	393.44373	176.79469	-1538.35229	119.48238	216.04393	-1545.72937	141.64693	297.29401	-1496.54187	52.18740	259.66446	-1689.68469	146.41830	300.29684	-1712.67554	185.92528	266.57767	-1700.68652	138.72287	195.79233
